<svg width="6" height="13" viewBox="0 0 6 13" fill="none" xmlns="http://www.w3.org/2000/svg">
<path d="M5.71429 11.2857C5.71429 10.9732 5.45536 10.7143 5.14286 10.7143H4.57143V5.57145C4.57143 5.25895 4.3125 5.00002 4 5.00002H0.571429C0.258929 5.00002 0 5.25895 0 5.57145V6.7143C0 7.0268 0.258929 7.28573 0.571429 7.28573H1.14286V10.7143H0.571429C0.258929 10.7143 0 10.9732 0 11.2857V12.4286C0 12.7411 0.258929 13 0.571429 13H5.14286C5.45536 13 5.71429 12.7411 5.71429 12.4286V11.2857ZM4.57143 1.00002C4.57143 0.687517 4.3125 0.428589 4 0.428589H1.71429C1.40179 0.428589 1.14286 0.687517 1.14286 1.00002V2.7143C1.14286 3.0268 1.40179 3.28573 1.71429 3.28573H4C4.3125 3.28573 4.57143 3.0268 4.57143 2.7143V1.00002Z" fill="#333333"/>
</svg>
