<svg width="237" height="44" viewBox="0 0 237 44" fill="none" xmlns="http://www.w3.org/2000/svg">
<rect width="120" height="44" fill="#FF5959"/>
<path d="M11.2627 35.0938H11.7627V34.5938V24.8281H16.3242V24.8282L16.3293 24.8281C17.5296 24.8159 18.6688 24.6326 19.744 24.2755C20.8331 23.9176 21.7946 23.3964 22.6223 22.7088C23.4553 22.017 24.1108 21.168 24.5877 20.1676C25.0838 19.1404 25.3248 17.9745 25.3248 16.6816C25.3248 15.3893 25.0839 14.2238 24.5883 13.1968C24.1117 12.1851 23.4563 11.3295 22.6223 10.6369C21.7945 9.94928 20.833 9.42804 19.7438 9.07017C18.6703 8.71362 17.533 8.52448 16.3344 8.5001L16.3344 8.5H16.3242H8H7.5V9V34.5938V35.0938H8H11.2627ZM20.6995 18.5882L20.6995 18.5882L20.6977 18.5924C20.4667 19.126 20.1441 19.5759 19.7292 19.9481C19.3101 20.3241 18.8143 20.6202 18.236 20.8342C17.6595 21.0359 17.0223 21.145 16.3203 21.1562H11.7627V12.1719H16.3203C17.021 12.1832 17.6569 12.2977 18.2321 12.5101L18.2321 12.5101L18.2349 12.5111C18.823 12.7242 19.3151 13.0238 19.7195 13.4063L19.7195 13.4063L19.7242 13.4106C20.1387 13.7927 20.4626 14.2592 20.6949 14.8172L20.6949 14.8173L20.6981 14.8246C20.9375 15.3744 21.0622 16.0023 21.0622 16.7168C21.0622 17.4315 20.9374 18.0521 20.6995 18.5882ZM29.3926 8.5H28.8926V9V11.8301V12.3301H29.3926H34.9065V31.2812H29.3926H28.8926V31.7812V34.5938V35.0938H29.3926H44.9123H45.4123V34.5938V31.7812V31.2812H44.9123H39.2573V12.3301H44.9123H45.4123V11.8301V9V8.5H44.9123H29.3926ZM67.5456 31.834V31.334H67.0456H54.6539L66.9925 11.745L67.0715 11.6196L67.0694 11.4714L67.0341 8.99289L67.0271 8.5H66.5342H50.2561H49.7561V9V11.7773V12.2773H50.2561H61.9068L49.6038 31.7959L49.5248 31.9213L49.5268 32.0695L49.5621 34.6007L49.569 35.0938H50.0621H67.0456H67.5456V34.5938V31.834ZM89.238 31.834V31.334H88.738H76.3463L88.6849 11.745L88.7639 11.6196L88.7618 11.4714L88.7265 8.99289L88.7195 8.5H88.2266H71.9484H71.4484V9V11.7773V12.2773H71.9484H83.5991L71.2962 31.7959L71.2172 31.9213L71.2192 32.0695L71.2545 34.6007L71.2614 35.0938H71.7545H88.738H89.238V34.5938V31.834ZM96.0922 35.0938H96.4602L96.5696 34.7424L98.5237 28.4668H106.357L108.277 34.7401L108.385 35.0938H108.755H112H112.684L112.476 34.4421L104.329 8.84832L104.218 8.5H103.852H101.119H100.755L100.643 8.84594L92.3539 34.4397L92.1421 35.0938H92.8296H96.0922ZM99.7157 24.6367L102.473 15.7301L105.188 24.6367H99.7157Z" fill="white" stroke="white"/>
<path d="M195 4C204.941 4 213 12.0588 213 22C213 31.9412 204.941 40 195 40C185.059 40 177 31.9412 177 22C177 12.0588 185.059 4 195 4ZM195 30.3582C199.616 30.3582 203.358 26.616 203.358 22C203.358 17.384 199.616 13.6418 195 13.6418C190.384 13.6418 186.642 17.384 186.642 22C186.642 26.616 190.384 30.3582 195 30.3582Z" fill="#FF5959"/>
<path d="M195 7.30606C197.063 7.30606 199.228 6.71933 201.021 7.46303C202.881 8.2341 203.989 10.2086 205.39 11.6098C206.791 13.0111 208.766 14.1192 209.537 15.9785C210.281 17.772 209.694 19.9374 209.694 21.9999C209.694 24.0625 210.281 26.2278 209.537 28.0213C208.766 29.8806 206.791 30.9889 205.39 32.39C203.989 33.7912 202.881 35.7657 201.022 36.5368C199.228 37.2805 197.063 36.6938 195 36.6938C192.937 36.6938 190.772 37.2805 188.979 36.5368C187.119 35.7658 186.011 33.7912 184.61 32.39C183.209 30.9888 181.234 29.8806 180.463 28.0213C179.72 26.2278 180.306 24.0624 180.306 21.9999C180.306 19.9373 179.72 17.772 180.463 15.9785C181.234 14.1192 183.209 13.0109 184.61 11.6098C186.011 10.2086 187.119 8.2341 188.979 7.46303C190.772 6.71933 192.937 7.30606 195 7.30606Z" fill="#FFFEB9"/>
<path d="M195 15.52C193.74 15.52 192.719 14.4988 192.719 13.239C192.719 11.9793 193.74 10.9581 195 10.9581C196.26 10.9581 197.281 11.9793 197.281 13.239C197.281 14.4988 196.26 15.52 195 15.52Z" fill="#FF5959"/>
<path d="M195 33.0419C193.74 33.0419 192.719 32.0207 192.719 30.761C192.719 29.5012 193.74 28.48 195 28.48C196.26 28.48 197.281 29.5012 197.281 30.761C197.281 32.0207 196.26 33.0419 195 33.0419Z" fill="#FF5959"/>
<path d="M186.239 24.281C184.979 24.281 183.958 23.2597 183.958 22C183.958 20.7403 184.979 19.719 186.239 19.719C187.499 19.719 188.52 20.7403 188.52 22C188.52 23.2597 187.499 24.281 186.239 24.281Z" fill="#FF5959"/>
<path d="M203.761 24.281C202.501 24.281 201.48 23.2597 201.48 22C201.48 20.7403 202.501 19.719 203.761 19.719C205.021 19.719 206.042 20.7403 206.042 22C206.042 23.2597 205.021 24.281 203.761 24.281Z" fill="#FF5959"/>
<path d="M188.805 18.086C187.545 18.086 186.524 17.0648 186.524 15.805C186.524 14.5453 187.545 13.524 188.805 13.524C190.065 13.524 191.086 14.5453 191.086 15.805C191.086 17.0648 190.065 18.086 188.805 18.086Z" fill="#FF5959"/>
<path d="M201.195 30.4759C199.935 30.4759 198.914 29.4546 198.914 28.1949C198.914 26.9351 199.935 25.9139 201.195 25.9139C202.455 25.9139 203.476 26.9351 203.476 28.1949C203.476 29.4546 202.455 30.4759 201.195 30.4759Z" fill="#FF5959"/>
<path d="M188.805 30.4759C187.545 30.4759 186.524 29.4546 186.524 28.1949C186.524 26.9351 187.545 25.9139 188.805 25.9139C190.065 25.9139 191.086 26.9351 191.086 28.1949C191.086 29.4546 190.065 30.4759 188.805 30.4759Z" fill="#FF5959"/>
<path d="M201.195 18.086C199.935 18.086 198.914 17.0648 198.914 15.805C198.914 14.5453 199.935 13.524 201.195 13.524C202.455 13.524 203.476 14.5453 203.476 15.805C203.476 17.0648 202.455 18.086 201.195 18.086Z" fill="#FF5959"/>
<path d="M222.398 26.0078V36.4375H216.91V8H226.637C228.186 8 229.586 8.22786 230.836 8.68359C232.086 9.1263 233.147 9.7513 234.02 10.5586C234.905 11.3529 235.582 12.3099 236.051 13.4297C236.533 14.5495 236.773 15.793 236.773 17.1602C236.773 18.4362 236.533 19.6146 236.051 20.6953C235.582 21.776 234.905 22.7135 234.02 23.5078C233.147 24.2891 232.086 24.901 230.836 25.3438C229.586 25.7865 228.186 26.0078 226.637 26.0078H222.398ZM222.398 21.5547H226.637C227.418 21.5547 228.095 21.4375 228.668 21.2031C229.241 20.9688 229.716 20.6497 230.094 20.2461C230.484 19.8424 230.771 19.3802 230.953 18.8594C231.148 18.3255 231.246 17.7721 231.246 17.1992C231.246 16.5352 231.148 15.9167 230.953 15.3438C230.771 14.7708 230.484 14.2695 230.094 13.8398C229.716 13.4102 229.241 13.0716 228.668 12.8242C228.095 12.5768 227.418 12.4531 226.637 12.4531H222.398V21.5547Z" fill="#FF5959"/>
<path d="M172.328 36.4375H166.898V24.1133H158.852V36.4375H153.402V8H158.852V19.6602H166.898V8H172.328V36.4375Z" fill="#FF5959"/>
<path d="M142.324 28.4062C142.324 27.8984 142.233 27.4232 142.051 26.9805C141.882 26.5378 141.582 26.1276 141.152 25.75C140.736 25.3594 140.182 25.0078 139.492 24.6953C138.815 24.3698 137.969 24.0703 136.953 23.7969C135.716 23.4583 134.531 23.0352 133.398 22.5273C132.279 22.0195 131.289 21.4076 130.43 20.6914C129.57 19.9753 128.88 19.1419 128.359 18.1914C127.852 17.2409 127.598 16.1471 127.598 14.9102C127.598 13.7122 127.852 12.625 128.359 11.6484C128.867 10.6719 129.57 9.83854 130.469 9.14844C131.367 8.45833 132.428 7.93099 133.652 7.56641C134.876 7.1888 136.204 7 137.637 7C139.121 7 140.475 7.21484 141.699 7.64453C142.936 8.07422 143.997 8.67969 144.883 9.46094C145.768 10.2292 146.458 11.1471 146.953 12.2148C147.448 13.2826 147.695 14.4544 147.695 15.7305H142.344C142.318 15.0924 142.201 14.5065 141.992 13.9727C141.797 13.4388 141.497 12.9831 141.094 12.6055C140.703 12.2148 140.208 11.9154 139.609 11.707C139.023 11.4857 138.333 11.375 137.539 11.375C136.81 11.375 136.159 11.4661 135.586 11.6484C135.026 11.8177 134.551 12.0651 134.16 12.3906C133.77 12.7031 133.47 13.0807 133.262 13.5234C133.066 13.9531 132.969 14.4219 132.969 14.9297C132.969 15.4635 133.099 15.9453 133.359 16.375C133.633 16.8047 134.023 17.1953 134.531 17.5469C135.039 17.8854 135.651 18.1979 136.367 18.4844C137.096 18.7708 137.917 19.0378 138.828 19.2852C140.13 19.6628 141.328 20.125 142.422 20.6719C143.516 21.2188 144.453 21.8698 145.234 22.625C146.029 23.3672 146.641 24.2201 147.07 25.1836C147.513 26.1341 147.734 27.1953 147.734 28.3672C147.734 29.6172 147.48 30.7305 146.973 31.707C146.478 32.6706 145.788 33.4909 144.902 34.168C144.017 34.832 142.962 35.3398 141.738 35.6914C140.514 36.0299 139.18 36.1992 137.734 36.1992C136.836 36.1992 135.938 36.1146 135.039 35.9453C134.154 35.7891 133.301 35.5417 132.48 35.2031C131.673 34.8646 130.918 34.4414 130.215 33.9336C129.512 33.4258 128.9 32.8333 128.379 32.1562C127.871 31.4792 127.467 30.7109 127.168 29.8516C126.882 28.9922 126.738 28.0417 126.738 27H132.129C132.155 27.8594 132.305 28.5951 132.578 29.207C132.852 29.819 133.229 30.3203 133.711 30.7109C134.206 31.1016 134.792 31.388 135.469 31.5703C136.159 31.7526 136.914 31.8438 137.734 31.8438C138.464 31.8438 139.108 31.7591 139.668 31.5898C140.241 31.4206 140.723 31.1862 141.113 30.8867C141.504 30.5872 141.803 30.2292 142.012 29.8125C142.22 29.3828 142.324 28.9141 142.324 28.4062Z" fill="#FF5959"/>
</svg>
