<svg width="233" height="233" viewBox="0 0 233 233" fill="none" xmlns="http://www.w3.org/2000/svg">
<path d="M116.5 0C52.1586 0 0 52.1586 0 116.5C0 180.841 52.1586 233 116.5 233C180.841 233 233 180.841 233 116.5C233 52.1586 180.841 0 116.5 0ZM116.5 170.596C86.6233 170.596 62.4041 146.376 62.4041 116.5C62.4041 86.6239 86.6239 62.4041 116.5 62.4041C146.376 62.4041 170.596 86.6239 170.596 116.5C170.596 146.376 146.376 170.596 116.5 170.596Z" fill="#FF5959"/>
<path d="M116.5 21.3975C103.15 21.3975 89.1363 17.6 77.528 22.4134C65.4935 27.4039 58.3215 40.1832 49.2524 49.2524C40.1832 58.3215 27.4039 65.4935 22.4134 77.5273C17.6 89.1356 21.3975 103.15 21.3975 116.499C21.3975 129.849 17.6 143.863 22.4134 155.471C27.4033 167.505 40.1832 174.678 49.2524 183.746C58.3215 192.815 65.4935 205.595 77.5273 210.585C89.1356 215.399 103.15 211.601 116.499 211.601C129.849 211.601 143.863 215.399 155.471 210.585C167.505 205.595 174.678 192.815 183.746 183.746C192.815 174.677 205.595 167.505 210.585 155.471C215.399 143.863 211.601 129.848 211.601 116.499C211.601 103.15 215.399 89.1356 210.585 77.5273C205.595 65.4935 192.815 58.3208 183.746 49.2524C174.677 40.1832 167.505 27.4039 155.471 22.4134C143.864 17.6 129.85 21.3975 116.5 21.3975Z" fill="#FFFEB9"/>
<path d="M116.5 74.56C124.653 74.56 131.263 67.9504 131.263 59.7971C131.263 51.6438 124.653 45.0342 116.5 45.0342C108.347 45.0342 101.737 51.6438 101.737 59.7971C101.737 67.9504 108.347 74.56 116.5 74.56Z" fill="#FF5959"/>
<path d="M116.5 187.966C124.653 187.966 131.263 181.356 131.263 173.203C131.263 165.05 124.653 158.44 116.5 158.44C108.347 158.44 101.737 165.05 101.737 173.203C101.737 181.356 108.347 187.966 116.5 187.966Z" fill="#FF5959"/>
<path d="M173.203 131.263C181.356 131.263 187.966 124.653 187.966 116.5C187.966 108.347 181.356 101.737 173.203 101.737C165.05 101.737 158.44 108.347 158.44 116.5C158.44 124.653 165.05 131.263 173.203 131.263Z" fill="#FF5959"/>
<path d="M59.7971 131.263C67.9504 131.263 74.56 124.653 74.56 116.5C74.56 108.347 67.9504 101.737 59.7971 101.737C51.6438 101.737 45.0342 108.347 45.0342 116.5C45.0342 124.653 51.6438 131.263 59.7971 131.263Z" fill="#FF5959"/>
<path d="M156.595 91.1676C164.748 91.1676 171.358 84.558 171.358 76.4047C171.358 68.2513 164.748 61.6418 156.595 61.6418C148.441 61.6418 141.832 68.2513 141.832 76.4047C141.832 84.558 148.441 91.1676 156.595 91.1676Z" fill="#FF5959"/>
<path d="M76.4047 171.358C84.558 171.358 91.1676 164.748 91.1676 156.595C91.1676 148.441 84.558 141.832 76.4047 141.832C68.2514 141.832 61.6418 148.441 61.6418 156.595C61.6418 164.748 68.2514 171.358 76.4047 171.358Z" fill="#FF5959"/>
<path d="M156.595 171.358C164.748 171.358 171.358 164.748 171.358 156.595C171.358 148.441 164.748 141.832 156.595 141.832C148.441 141.832 141.832 148.441 141.832 156.595C141.832 164.748 148.441 171.358 156.595 171.358Z" fill="#FF5959"/>
<path d="M76.4047 91.1676C84.558 91.1676 91.1676 84.558 91.1676 76.4047C91.1676 68.2513 84.558 61.6418 76.4047 61.6418C68.2514 61.6418 61.6418 68.2513 61.6418 76.4047C61.6418 84.558 68.2514 91.1676 76.4047 91.1676Z" fill="#FF5959"/>
</svg>
