<svg width="32" height="24" viewBox="0 0 32 24" fill="none" xmlns="http://www.w3.org/2000/svg">
<path d="M12.8571 22.2C12.8571 21.5062 12.0737 21.6 11.5714 21.6H5.78571C4.01786 21.6 2.57143 20.25 2.57143 18.6V5.4C2.57143 3.75 4.01786 2.4 5.78571 2.4H12.2143C13.1183 2.4 12.8571 1.125 12.8571 0.6C12.8571 0.281249 12.5558 0 12.2143 0H5.78571C2.59152 0 0 2.41875 0 5.4V18.6C0 21.5812 2.59152 24 5.78571 24H12.2143C13.1183 24 12.8571 22.725 12.8571 22.2ZM31.5 12C31.5 11.6812 31.3594 11.3812 31.1183 11.1562L20.1897 0.956249C19.9487 0.73125 19.6272 0.6 19.2857 0.6C18.5826 0.6 18 1.14375 18 1.8V7.2H9C8.29688 7.2 7.71429 7.74375 7.71429 8.4V15.6C7.71429 16.2562 8.29688 16.8 9 16.8H18V22.2C18 22.8562 18.5826 23.4 19.2857 23.4C19.6272 23.4 19.9487 23.2687 20.1897 23.0437L31.1183 12.8438C31.3594 12.6188 31.5 12.3187 31.5 12Z" fill="#333333" fill-opacity="0.8"/>
</svg>
