<svg width="30" height="30" viewBox="0 0 30 30" fill="none" xmlns="http://www.w3.org/2000/svg">
<path d="M15 0C6.71317 0 0 6.71317 0 15C0 23.2533 6.69643 30 15 30C23.3203 30 30 23.2366 30 15C30 6.71317 23.2868 0 15 0ZM25.3627 22.6172C24.76 19.6205 23.3036 17.1429 20.24 17.1429C18.8839 18.4654 17.0424 19.2857 15 19.2857C12.9576 19.2857 11.1161 18.4654 9.76004 17.1429C6.69643 17.1429 5.23996 19.6205 4.63728 22.6172C3.08036 20.4743 2.14286 17.846 2.14286 15C2.14286 7.91853 7.91853 2.14286 15 2.14286C22.0815 2.14286 27.8571 7.91853 27.8571 15C27.8571 17.846 26.9196 20.4743 25.3627 22.6172ZM21.4286 11.7857C21.4286 15.3348 18.5491 18.2143 15 18.2143C11.4509 18.2143 8.57143 15.3348 8.57143 11.7857C8.57143 8.23661 11.4509 5.35714 15 5.35714C18.5491 5.35714 21.4286 8.23661 21.4286 11.7857Z" fill="#FF5959"/>
</svg>
